<svg width="127" height="46" viewBox="0 0 127 46" fill="none" xmlns="http://www.w3.org/2000/svg">
<g clip-path="url(#clip0_1_2)">
<path d="M74.3 27.7C74.3 37.2 69.1 38.4 63.9 38.4C55 38.4 53.1 33.8 53.1 27.3V8.8H49.8V7H62.3V8.8H58.8V26.7C58.8 33 60.4 36.2 65 36.2C69.6 36.2 71.9 33.9 71.9 27.3V8.8H68.6V7H77.5V8.8H74.5L74.3 27.7V27.7ZM83 36.2V8.8H79.5V7H93.3C99.2 7 102.1 10.3 102.1 14.2C102.1 18.4 98.3 20.7 95 21.4C101.5 22 103.3 26.2 103.3 29.3C103.3 35.6 97.9 38 92.7 38H79.3V36.2H83ZM96.5 14.6C96.5 11.7 95 8.8 91.7 8.8H88.1V20.7H91.3C94.9 20.7 96.5 17.8 96.5 14.6V14.6ZM97.7 29.4C97.7 25.3 95.9 22.5 91.8 22.5H88.3V36.3H91.2C95.5 36.2 97.7 33.6 97.7 29.4V29.4ZM117.2 8.4C113.9 8.4 111.8 10.3 111.8 13.7C111.8 16.7 115.1 18.2 118.3 19.3C120.2 20 122.6 20.9 124.3 22.4C126.1 24.1 127.1 26.4 127 29.3C126.9 34.7 123.1 38.4 116.4 38.4C113.9 38.4 110 37.8 107.7 36.5L107.4 28.4H109.4C109.6 33.9 112.1 36.7 116.6 36.7C120.2 36.7 122.2 34.3 122.2 30.6C122.2 27.4 119.6 26.1 115.6 24.7C114.3 24.3 111.7 23.3 109.9 21.5C108.3 19.9 107.5 17.8 107.5 15.7C107.5 9.4 112 6.6 117.6 6.6C119.8 6.6 123.1 7.4 125.1 8.5L125.3 15.6H123.3C123 10.6 120.8 8.4 117.2 8.4Z" fill="#E60000"/>
<path d="M34.1 13.3L33.3 14L34.2 16.9L31.6 15.5L30.7 16.2L33.6 17.8L30.5 20.3L29.7 19.2L30.8 18.3L30 17.3L28.9 18.2L28 17L29.1 16.1L28.3 15L22.7 19.7L28.1 24L29.1 22.8C29.8 22.8 30.3 23.4 30.6 24L29.6 25.2L30.2 25.7C31.5 24.5 33.3 23.7 35.1 23.7C38.9 23.7 41.8 26.8 41.8 30.6C41.8 31.8 41.5 33.2 40.8 34.3L41.8 35.1C41.8 35.8 41.1 36.6 40.4 36.8L39.4 36C38.1 37.3 36.3 38 34.5 38C30.7 38 27.8 35 27.8 31.2C27.8 30 28.2 28.7 28.7 27.6L28 27.1L27 28.4C26.3 28.3 25.7 27.8 25.5 27.1L26.5 26L22 22.2V28.2H23.5C23.7 28.5 23.8 28.8 23.8 29.1C23.8 29.4 23.7 29.8 23.5 30.1H22V30.8C25.3 31.4 28.1 34.2 28.1 37.6C28.1 41.1 25.4 43.9 22 44.5V45.7C21.7 45.9 21.3 46 20.9 46C20.5 46 20 45.9 19.7 45.7V44.5C16.3 44 13.7 41.1 13.7 37.6C13.7 34.2 16.3 31.4 19.7 30.9V30.1H18.1C17.9 29.8 17.8 29.5 17.8 29.1C17.8 28.7 17.9 28.4 18.1 28.1H19.7V22.1L15.1 25.9L16.1 27C15.9 27.7 15.3 28.2 14.6 28.3L13.6 27L13 27.6C13.6 28.7 14 29.9 14 31.2C14 35 11 38 7.3 38C5.5 38 3.7 37.3 2.4 36L1.4 36.8C0.8 36.6 0.1 35.8 0 35.1L1 34.3C0.4 33.2 0 31.9 0 30.6C0 26.8 2.9 23.7 6.7 23.7C8.5 23.7 10.3 24.5 11.6 25.7L12.2 25.3L11.2 24.1C11.4 23.5 12 23 12.7 22.9L13.7 24.1L19.1 19.8L13.5 15.1L12.7 16.2L13.8 17.1L13 18.2L11.9 17.3L11.1 18.3L12 19L11.2 20.1L8.2 17.6L11 16L10.2 15.3L7.6 16.7L8.4 14L7.6 13.3L6.6 16.4L3.5 13.9L4.3 12.9L5.4 13.8L6.3 12.8L5.2 11.8L6 10.8L7.1 11.6L7.9 10.6L5.5 8.8C5.7 8 6.2 7.4 7 6.9L19.7 17.3V10.4H18.4V11.7H17.1V10.4H15.8V11.7H14.5V7.8L17.5 9.1V8L14.7 6.8L17.5 5.7V4.7L14.5 5.9V1.9H15.8V3.3H17.1V1.9H18.4V3.3H19.7V0.2C20.1 0.1 20.5 0 20.9 0C21.3 0 21.7 0.1 22 0.2V17.3L34.7 6.9C35.4 7.4 35.9 8 36.2 8.8L33.8 10.7L34.6 11.7L35.7 10.9L36.5 11.9L35.4 12.9L36.2 13.9L37.3 13L38.1 14L35 16.5L34.1 13.3V13.3ZM8.2 32.1C8.2 33.2 9 33.9 10 34L8.4 35.2C7.3 34.8 6.3 33.5 6.3 32.3C6.3 31.9 6.4 31.7 6.5 31.4H6.2C4.7 31.4 3.5 30 3.2 28.6L4.9 27.3V27.8C4.9 28.7 5.8 29.5 6.7 29.5C7.7 29.5 8.6 28.7 8.6 27.7C8.6 26.5 7.7 25.7 6.5 25.7C4.3 25.7 2.1 27.9 2.1 30.7C2.1 31.5 2.3 32.3 2.6 33L3.6 32.2C4.3 32.5 4.8 33.2 5 34L4 34.8C5 35.6 6.2 36 7.4 36C10 36 12 33.9 12 32.1C12 31 11.3 30.1 10.2 30.1C9 30.3 8.2 31.1 8.2 32.1V32.1ZM21.8 36.1C21.8 37.1 22.6 37.9 23.6 37.9C24.3 37.9 24.6 37.6 25.1 37.2V39.3C24.6 39.6 24.1 39.7 23.5 39.7C22.4 39.7 21.5 39.4 20.9 38.4C20.3 39.4 19.3 39.7 18.2 39.7C17.7 39.7 17.1 39.6 16.6 39.3V37.2C17.1 37.7 17.4 37.9 18.1 37.9C19.1 37.9 19.9 37.1 19.9 36.1C19.9 35.1 19.3 34.3 18.2 34.3C16.3 34.3 15.5 36.1 15.5 37.8C15.5 40.2 17.3 42.3 19.6 42.7V41.5C20 41.3 20.4 41.3 20.7 41.3C21.1 41.3 21.5 41.3 21.9 41.5V42.7C24.1 42.4 26 40.1 26 37.8C26 36.1 25.3 34.3 23.3 34.3C22.5 34.2 21.8 35.1 21.8 36.1V36.1ZM33.2 27.8C33.2 28.7 34.2 29.6 35.1 29.6C36 29.6 36.9 28.8 36.9 27.9V27.4L38.5 28.7C38.2 30.3 36.8 31.6 35.2 31.5C35.3 31.8 35.3 32.1 35.3 32.4C35.3 33.6 34.3 34.9 33.2 35.3L31.7 34C32.7 33.9 33.5 33.2 33.5 32.1C33.5 31 32.6 30.3 31.6 30.3C30.5 30.3 29.8 31.2 29.8 32.3C29.8 33.6 31.4 36.2 34.5 36.2C35.7 36.2 36.9 35.8 37.8 35L36.8 34.2C37 33.4 37.5 32.7 38.2 32.4L39.2 33.2C39.6 32.5 39.8 31.7 39.8 30.9C39.8 28.7 38.1 25.9 35.4 25.9C34.2 25.9 33.2 26.6 33.2 27.8V27.8Z" fill="black"/>
</g>
<defs>
<clipPath id="clip0_1_2">
<rect width="127" height="46" fill="white"/>
</clipPath>
</defs>
</svg>
